<svg width="160" height="60" viewBox="0 0 160 60" fill="none" xmlns="http://www.w3.org/2000/svg">
<path d="M78.716 28.672C78.716 29.8107 78.4547 30.856 77.932 31.808C77.4093 32.7413 76.6067 33.4973 75.524 34.076C74.4413 34.6547 73.0973 34.944 71.492 34.944H68.524V42H63.736V22.344H71.492C73.06 22.344 74.3853 22.6147 75.468 23.156C76.5507 23.6973 77.3627 24.444 77.904 25.396C78.4453 26.348 78.716 27.44 78.716 28.672ZM71.128 31.136C72.0427 31.136 72.724 30.9213 73.172 30.492C73.62 30.0627 73.844 29.456 73.844 28.672C73.844 27.888 73.62 27.2813 73.172 26.852C72.724 26.4227 72.0427 26.208 71.128 26.208H68.524V31.136H71.128ZM83.6167 24.752C82.7767 24.752 82.086 24.5093 81.5447 24.024C81.022 23.52 80.7607 22.904 80.7607 22.176C80.7607 21.4293 81.022 20.8133 81.5447 20.328C82.086 19.824 82.7767 19.572 83.6167 19.572C84.438 19.572 85.11 19.824 85.6327 20.328C86.174 20.8133 86.4447 21.4293 86.4447 22.176C86.4447 22.904 86.174 23.52 85.6327 24.024C85.11 24.5093 84.438 24.752 83.6167 24.752ZM85.9967 26.376V42H81.2087V26.376H85.9967ZM88.5145 34.188C88.5145 32.564 88.8411 31.1453 89.4945 29.932C90.1665 28.7187 91.0905 27.7853 92.2665 27.132C93.4611 26.4787 94.8238 26.152 96.3545 26.152C98.3145 26.152 99.9478 26.6653 101.254 27.692C102.58 28.7187 103.448 30.1653 103.858 32.032H98.7625C98.3331 30.8373 97.5025 30.24 96.2705 30.24C95.3931 30.24 94.6931 30.5853 94.1705 31.276C93.6478 31.948 93.3865 32.9187 93.3865 34.188C93.3865 35.4573 93.6478 36.4373 94.1705 37.128C94.6931 37.8 95.3931 38.136 96.2705 38.136C97.5025 38.136 98.3331 37.5387 98.7625 36.344H103.858C103.448 38.1733 102.58 39.6107 101.254 40.656C99.9291 41.7013 98.2958 42.224 96.3545 42.224C94.8238 42.224 93.4611 41.8973 92.2665 41.244C91.0905 40.5907 90.1665 39.6573 89.4945 38.444C88.8411 37.2307 88.5145 35.812 88.5145 34.188ZM113.532 42.224C112.001 42.224 110.62 41.8973 109.388 41.244C108.174 40.5907 107.213 39.6573 106.504 38.444C105.813 37.2307 105.468 35.812 105.468 34.188C105.468 32.5827 105.822 31.1733 106.532 29.96C107.241 28.728 108.212 27.7853 109.444 27.132C110.676 26.4787 112.057 26.152 113.588 26.152C115.118 26.152 116.5 26.4787 117.732 27.132C118.964 27.7853 119.934 28.728 120.644 29.96C121.353 31.1733 121.708 32.5827 121.708 34.188C121.708 35.7933 121.344 37.212 120.616 38.444C119.906 39.6573 118.926 40.5907 117.676 41.244C116.444 41.8973 115.062 42.224 113.532 42.224ZM113.532 38.08C114.446 38.08 115.221 37.744 115.856 37.072C116.509 36.4 116.836 35.4387 116.836 34.188C116.836 32.9373 116.518 31.976 115.884 31.304C115.268 30.632 114.502 30.296 113.588 30.296C112.654 30.296 111.88 30.632 111.264 31.304C110.648 31.9573 110.34 32.9187 110.34 34.188C110.34 35.4387 110.638 36.4 111.236 37.072C111.852 37.744 112.617 38.08 113.532 38.08ZM131.276 37.52L134.664 26.376H139.76L134.216 42H128.308L122.764 26.376H127.888L131.276 37.52ZM140.823 34.16C140.823 32.5547 141.122 31.1453 141.719 29.932C142.335 28.7187 143.166 27.7853 144.211 27.132C145.256 26.4787 146.423 26.152 147.711 26.152C148.812 26.152 149.774 26.376 150.595 26.824C151.435 27.272 152.079 27.86 152.527 28.588V26.376H157.315V42H152.527V39.788C152.06 40.516 151.407 41.104 150.567 41.552C149.746 42 148.784 42.224 147.683 42.224C146.414 42.224 145.256 41.8973 144.211 41.244C143.166 40.572 142.335 39.6293 141.719 38.416C141.122 37.184 140.823 35.7653 140.823 34.16ZM152.527 34.188C152.527 32.9933 152.191 32.0507 151.519 31.36C150.866 30.6693 150.063 30.324 149.111 30.324C148.159 30.324 147.347 30.6693 146.675 31.36C146.022 32.032 145.695 32.9653 145.695 34.16C145.695 35.3547 146.022 36.3067 146.675 37.016C147.347 37.7067 148.159 38.052 149.111 38.052C150.063 38.052 150.866 37.7067 151.519 37.016C152.191 36.3253 152.527 35.3827 152.527 34.188Z" fill="white"/>
<path d="M32.8064 7.94491C30.9845 7.73416 30.1043 7.92099 27.728 9.07167C25.8413 10.0017 25.8266 10.024 26.49 10.2699C26.8603 10.3864 29.7803 12.2174 32.9917 14.3368L38.8153 18.1801L39.995 17.4873C41.5152 16.5392 42.239 15.1296 41.8082 13.8537C41.5326 12.9681 41.3076 12.7876 37.8805 10.5259C34.5107 8.33392 34.0978 8.12543 32.8064 7.94491Z" fill="#A3E635"/>
<path d="M43.3103 14.6529C43.2591 14.939 43.1617 16.4421 43.1067 18.0372L43.0146 20.8874L47.5093 23.9816C49.9962 25.6868 52.0425 27.0693 52.0665 27.0851C52.0905 27.1009 52.17 25.9379 52.2233 24.5016C52.3252 22.1058 52.2418 21.7629 51.3965 20.4373C50.5512 19.1117 50.1252 18.7666 46.934 16.5646C43.6137 14.2454 43.4073 14.1411 43.3103 14.6529Z" fill="#64862D"/>
<path d="M40.1551 18.8084C39.3452 19.2016 34.9035 21.2924 30.2924 23.4313C19.6731 28.4185 19.3768 28.6068 18.5979 30.204C17.9073 31.6675 17.6769 32.9549 17.7276 35.0676L17.75 36.6497L18.9515 35.7153C20.0702 34.8543 22.1171 33.838 33.7396 28.4253C36.3921 27.1689 38.9727 25.8652 39.4493 25.5079C40.7189 24.5225 41.7586 22.4257 41.8409 20.5287C41.9814 18.1264 41.867 17.9869 40.1551 18.8084Z" fill="#A3E635"/>
<path d="M43.2063 22.4217C43.0445 22.6668 42.8 27.2077 42.8953 28.2622C42.9531 28.7482 43.6279 29.2895 47.4662 31.9186L51.9608 35.0128L52.0349 32.5026C52.1214 29.7128 51.7091 28.513 50.147 26.9703C48.69 25.5289 43.4416 22.0652 43.2063 22.4217Z" fill="#64862D"/>
<path d="M26.1784 11.4718C24.4665 10.8858 20.6457 11.7229 18.9529 13.0369C18.5444 13.343 18.5335 13.4638 18.8761 13.466C19.1413 13.4811 22.1773 15.2928 25.6245 17.4718L31.9051 21.4568L34.5723 20.1782C36.056 19.494 37.3076 18.8485 37.3811 18.7371C37.5282 18.5143 27.2269 11.8118 26.1784 11.4718Z" fill="#A3E635"/>
<path d="M40.9417 25.8529C40.8093 26.0535 37.0359 27.9136 32.5555 30.0108C21.1704 35.3243 20.3458 35.7397 19.2827 36.8294C18.0686 38.0435 17.439 39.6752 17.5921 41.2156C17.7244 42.4226 18.4875 44.2377 19.2125 45.068C19.6515 45.5497 19.6515 45.5497 19.8508 44.4657C20.1651 42.5299 20.9233 42.0066 28.7152 38.3842C38.7179 33.7578 39.4265 33.3618 40.3824 31.9134C41.2941 30.5319 41.7413 28.8117 41.6873 27.0168C41.6378 25.7365 41.3387 25.2513 40.9417 25.8529Z" fill="#A3E635"/>
<path d="M18.9481 14.9206C18.5505 15.106 18.4263 15.9198 18.3359 18.6111C18.2684 20.4858 18.1693 23.5552 18.0926 25.3918L17.9276 28.7696L18.6781 28.0494C19.5022 27.2178 21.3464 26.1957 22.9684 25.6668L24.1062 25.2981L24.1209 23.8683C24.153 23.0898 24.1514 21.8412 24.1154 21.1138C24.0795 20.3863 24.0854 19.3346 24.1344 18.7912L24.1976 17.8093L21.825 16.2435C19.788 14.8991 19.3604 14.7129 18.9481 14.9206Z" fill="#A3E635"/>
<path d="M42.196 31.5113C41.7331 32.4213 41.0877 33.2429 40.3186 33.8869L39.1743 34.891L38.9739 37.9576C38.7109 42.4222 38.5943 42.0254 40.9135 43.62C42.9119 44.9708 44.1908 45.431 44.529 44.9185C44.6761 44.6956 44.9494 39.694 45.1258 33.7967L45.1912 31.6646L44.0408 30.9054L42.8905 30.1463L42.196 31.5113Z" fill="#64862D"/>
<path d="M46.2386 32.5794C45.9135 38.8584 45.7409 44.8542 45.8352 45.0763C46.0383 45.4983 47.7012 45.2202 48.9141 44.5813C50.2872 43.8561 51.6347 41.8664 51.8645 40.1628C52.0927 38.618 51.486 36.6182 50.4936 35.5154C49.6395 34.5679 46.2566 32.2394 46.2386 32.5794Z" fill="#64862D"/>
<path d="M15.4703 14.7689C13.406 15.1339 12.3369 15.8677 11.5983 17.2996C10.9828 18.4928 10.7215 22.7986 10.5843 34.7356C10.4983 39.3491 11.104 40.5165 14.7707 42.9364L17.1193 44.4864L16.8105 43.5468C16.6275 43.0422 16.6171 37.9493 16.7385 32.2395C17.1452 16.6099 17.1473 15.4598 16.9883 14.971C16.8663 14.6346 16.4905 14.5785 15.4703 14.7689Z" fill="#A3E635"/>
<path d="M43.8331 46.442C43.5439 46.4111 40.5558 44.631 37.2099 42.4548L31.0786 38.5044L28.218 39.8153L25.3575 41.1263L30.1102 44.4548C36.1757 48.7137 36.9202 49.0451 39.5019 48.5737C41.2421 48.2827 44.4546 47.0121 44.362 46.6311C44.3434 46.5549 44.1223 46.4729 43.8331 46.442Z" fill="#64862D"/>
<path d="M36.0645 49.6641C35.7421 49.5792 32.8553 47.802 29.6679 45.6985L23.8536 41.8933L23.0971 42.2577C21.0834 43.3279 20.2147 45.2176 21.0878 46.6575C21.4958 47.3426 22.2572 47.9091 25.1533 49.7244C29.1424 52.2291 30.2535 52.5785 32.5422 51.9777C33.7279 51.6407 36.7835 50.1385 36.7132 49.9322C36.6947 49.856 36.4017 49.7266 36.0645 49.6641Z" fill="#64862D"/>
</svg>
