<svg width="20" height="20" viewBox="0 0 20 20" fill="none" xmlns="http://www.w3.org/2000/svg">
<path d="M13.6295 5.27389L13.6445 5.64654L13.4996 5.96968L13.3774 5.65347C13.3758 5.64926 13.3749 5.64492 13.3747 5.64062C13.372 3.76724 11.8478 2.25231 9.97146 2.25231C8.09351 2.25231 6.5682 3.76992 6.5682 5.64559V5.68942L6.57582 5.73258C6.57665 5.73724 6.57665 5.742 6.57582 5.74669L6.47214 6.33366H7.0682H12.911H13.3363H13.6402H14.1086H14.2387C15.0011 6.33366 15.9372 6.86766 16.2935 8.51697L16.9315 13.6575L16.9314 13.6575L16.9325 13.6653C17.1543 15.2489 16.8092 16.2611 16.2152 16.881C15.6108 17.5117 14.6564 17.8336 13.4654 17.8336H6.55711C5.32092 17.8336 4.36144 17.599 3.7641 17.0254C3.18803 16.4724 2.8284 15.4821 3.0826 13.6652L3.08265 13.6652L3.08352 13.6582L3.7301 8.50826C3.88158 7.65385 4.20497 7.11716 4.56376 6.79514C4.92402 6.47181 5.35412 6.33366 5.77643 6.33366H5.84157H6.43753L6.33396 5.74677C6.33312 5.74203 6.33313 5.73721 6.33396 5.7325L6.33974 5.69975L6.34113 5.66653C6.42304 3.71213 8.03731 2.16699 10.0041 2.16699C11.8372 2.16699 13.3641 3.50915 13.6295 5.27389ZM6.34434 9.3661C6.34434 10.0472 6.88444 10.6241 7.58083 10.6241C8.27722 10.6241 8.81732 10.0472 8.81732 9.3661C8.81732 8.685 8.27722 8.10806 7.58083 8.10806C6.88444 8.10806 6.34434 8.685 6.34434 9.3661ZM11.1684 9.3661C11.1684 10.0471 11.7084 10.6241 12.4048 10.6241C13.1013 10.6241 13.6413 10.0472 13.6413 9.3661C13.6413 8.68502 13.1013 8.10806 12.4048 8.10806C11.7084 8.10806 11.1684 8.68506 11.1684 9.3661Z" fill="#9DB870" stroke="#9DB870"/>
</svg>
