<svg width="20" height="20" viewBox="0 0 20 20" fill="none" xmlns="http://www.w3.org/2000/svg">
<path d="M8.92035 12.185L8.92039 12.1851C9.20895 12.4734 9.58975 12.6299 10.0003 12.6299C10.8374 12.6299 11.518 11.9495 11.5253 11.1053C11.5248 10.6963 11.3684 10.317 11.0804 10.0291L8.92035 12.185ZM8.92035 12.185C8.6318 11.8968 8.47533 11.5168 8.47533 11.1071V11.0988H8.4754M8.92035 12.185L8.4754 11.0988M8.4754 11.0988L8.47527 11.0908M8.4754 11.0988L8.47527 11.0908M8.47527 11.0908C8.46915 10.7059 8.62167 10.3275 8.91202 10.0374L8.47527 11.0908ZM10.0003 9.58435C9.59129 9.58435 9.21002 9.73976 8.91203 10.0374L10.0003 9.58435ZM10.0003 9.58435C10.4109 9.58435 10.7917 9.74083 11.0803 10.0291L10.0003 9.58435ZM14.0787 5.40423L14.0882 5.42514L14.0996 5.44509C14.2078 5.63443 14.4191 5.79689 14.7003 5.79689C16.4247 5.79689 17.8337 7.20509 17.8337 8.92619V13.8707C17.8337 15.5918 16.4247 17 14.7003 17H5.30033C3.56836 17 2.16699 15.5926 2.16699 13.8707V8.92619C2.16699 7.20433 3.56836 5.79689 5.30033 5.79689C5.50711 5.79689 5.78898 5.69331 5.91396 5.40446L5.95578 5.32091L5.95587 5.32096L5.96027 5.31171L6.04848 5.12594C6.04849 5.12593 6.04849 5.12593 6.04849 5.12592C6.26229 4.6756 6.49478 4.18598 6.63808 3.89956C6.9414 3.30815 7.42639 3.00706 8.03638 3H11.956C12.5682 3.00709 13.0603 3.31024 13.3626 3.89953C13.4908 4.15583 13.6874 4.57104 13.8807 4.97936L13.8808 4.9796L13.9968 5.22457L14.0787 5.40423ZM12.662 13.775L12.6621 13.7749C13.3438 13.0939 13.7657 12.1538 13.7753 11.1117H13.7753V11.1071C13.7753 10.1076 13.3803 9.15794 12.6727 8.44163L12.6727 8.44162L12.6703 8.43925C11.9597 7.72939 11.0075 7.33574 10.0003 7.33574C8.99221 7.33574 8.04029 7.73007 7.32198 8.44758L7.32197 8.44757L7.31961 8.44996C6.61376 9.16456 6.21632 10.1061 6.22533 11.1095C6.22596 12.117 6.62145 13.0573 7.32794 13.7726L7.32791 13.7726L7.33268 13.7773C8.04926 14.4836 8.99123 14.8785 10.0003 14.8785C11.0387 14.8785 11.9808 14.4554 12.662 13.775ZM13.4253 8.39345C13.4253 9.08635 13.9831 9.64262 14.6753 9.64262C15.3603 9.64262 15.9337 9.09353 15.9337 8.39345C15.9337 7.70054 15.3676 7.13596 14.6753 7.13596C13.9759 7.13596 13.4253 7.70778 13.4253 8.39345Z" fill="#9DB870" stroke="#9DB870"/>
</svg>
