<svg width="24" height="24" viewBox="0 0 24 24" fill="none" xmlns="http://www.w3.org/2000/svg">
<g clip-path="url(#clip0_3947_3150)">
<path d="M23.5 12C23.5 5.64873 18.3513 0.5 12 0.5C5.64873 0.5 0.5 5.64873 0.5 12C0.5 18.3513 5.64873 23.5 12 23.5C18.3513 23.5 23.5 18.3513 23.5 12Z" fill="#F4F7FE"/>
<path d="M23.5 12C23.5 5.64873 18.3513 0.5 12 0.5C5.64873 0.5 0.5 5.64873 0.5 12C0.5 18.3513 5.64873 23.5 12 23.5C18.3513 23.5 23.5 18.3513 23.5 12Z" stroke="#E4EAFF"/>
<path fill-rule="evenodd" clip-rule="evenodd" d="M17.0965 7.39016L9.9365 14.3001L8.0365 12.2701C7.6865 11.9401 7.1365 11.9201 6.7365 12.2001C6.3465 12.4901 6.2365 13.0001 6.4765 13.4101L8.7265 17.0701C8.9465 17.4101 9.3265 17.6201 9.7565 17.6201C10.1665 17.6201 10.5565 17.4101 10.7765 17.0701C11.1365 16.6001 18.0065 8.41016 18.0065 8.41016C18.9065 7.49016 17.8165 6.68016 17.0965 7.38016V7.39016Z" fill="#90CA30"/>
</g>
<defs>
<clipPath id="clip0_3947_3150">
<rect width="24" height="24" fill="white"/>
</clipPath>
</defs>
</svg>
