<svg width="20" height="20" viewBox="0 0 20 20" fill="none" xmlns="http://www.w3.org/2000/svg">
<path d="M8.85843 6.57564L5.36441 6.57586L5.20335 6.57974C3.53281 6.66374 2.16669 8.11173 2.16669 9.89664V14.0818L2.17046 14.251C2.25289 16.0303 3.66842 17.4168 5.36669 17.4168H14.6273L14.7884 17.4129C16.462 17.3293 17.8333 15.8867 17.8333 14.1046V9.91079L17.8296 9.74256C17.7467 7.97103 16.3237 6.57586 14.625 6.57586H14.625L11.1418 6.57564L11.1417 10.1705L11.6064 9.68763L11.6197 9.67384L11.634 9.6611L11.7058 9.5971L11.7198 9.58457L11.7348 9.57314C12.1853 9.22865 12.8286 9.26767 13.2342 9.68648L13.2342 9.68652C13.6718 10.1384 13.6719 10.8674 13.2348 11.3195L8.85843 6.57564ZM8.85843 6.57564L8.85837 10.1762L8.38421 9.6865C7.93773 9.22543 7.20398 9.22543 6.7575 9.6865L6.75748 9.68652C6.52943 9.92204 6.43335 10.2253 6.43335 10.5076C6.43335 10.7306 6.49645 10.967 6.63692 11.1724L6.64885 11.1898L6.66221 11.2062L6.72928 11.2884L6.74245 11.3046L6.75691 11.3195L9.17708 13.8272C9.39501 14.0643 9.69725 14.183 10 14.183C10.2515 14.183 10.5038 14.097 10.706 13.9302L10.7199 13.9186L10.7331 13.9061L10.7954 13.8466L10.8027 13.8396L10.8098 13.8322L13.2342 11.3201L8.85843 6.57564ZM10.1418 2.75189V5.57561H9.85844V2.73476C9.85844 2.64438 9.92906 2.5835 10.0001 2.5835C10.0289 2.5835 10.0602 2.59439 10.0886 2.61975C10.1146 2.64303 10.1319 2.67327 10.1386 2.70446L10.1418 2.75189Z" fill="#9DB870" stroke="#9DB870"/>
</svg>
