<svg width="24" height="24" viewBox="0 0 24 24" fill="none" xmlns="http://www.w3.org/2000/svg">
<path d="M8.37774 6.37856C8.37774 7.96099 7.07088 9.25821 5.43887 9.25821C3.80786 9.25821 2.5 7.96089 2.5 6.37856C2.5 4.79743 3.80776 3.5 5.43887 3.5C7.07099 3.5 8.37774 4.79732 8.37774 6.37856ZM20.4933 5.39833C21.0567 5.39833 21.5 5.8465 21.5 6.37856C21.5 6.91195 21.0564 7.35989 20.4933 7.35989H13.9178C13.3534 7.35989 12.9101 6.91176 12.9101 6.37856C12.9101 5.84669 13.3531 5.39833 13.9178 5.39833H20.4933ZM3.50777 16.458H10.0833C10.6478 16.458 11.0911 16.9062 11.0911 17.4393C11.0911 17.9716 10.6475 18.4206 10.0833 18.4206H3.50777C2.94355 18.4206 2.5 17.9716 2.5 17.4393C2.5 16.9062 2.94331 16.458 3.50777 16.458ZM21.5 17.3992C21.5 18.9805 20.1932 20.2778 18.5611 20.2778C16.9301 20.2778 15.6223 18.9804 15.6223 17.3992C15.6223 15.8168 16.9302 14.5196 18.5611 14.5196C20.1931 14.5196 21.5 15.8168 21.5 17.3992Z" fill="#9DB870" stroke="#9DB870"/>
</svg>
