<svg width="46" height="46" viewBox="0 0 46 46" fill="none" xmlns="http://www.w3.org/2000/svg">
<g clip-path="url(#clip0_3947_3104)">
<path d="M43 23C43 11.9543 34.0457 3 23 3C11.9543 3 3 11.9543 3 23C3 34.0457 11.9543 43 23 43C34.0457 43 43 34.0457 43 23Z" fill="#F4F7FE"/>
<path d="M43 23C43 11.9543 34.0457 3 23 3C11.9543 3 3 11.9543 3 23C3 34.0457 11.9543 43 23 43C34.0457 43 43 34.0457 43 23Z" stroke="#E4EAFF" stroke-width="6"/>
<path d="M23.8335 14.6665L16.4114 23.5731C16.1207 23.9219 15.9754 24.0963 15.9732 24.2436C15.9713 24.3716 16.0283 24.4935 16.1279 24.574C16.2425 24.6665 16.4695 24.6665 16.9236 24.6665H23.0002L22.1669 31.3332L29.589 22.4267C29.8797 22.0779 30.025 21.9035 30.0272 21.7562C30.0292 21.6281 29.9721 21.5063 29.8725 21.4258C29.7579 21.3332 29.5309 21.3332 29.0768 21.3332H23.0002L23.8335 14.6665Z" stroke="url(#paint0_linear_3947_3104)" stroke-width="1.66667" stroke-linecap="round" stroke-linejoin="round"/>
</g>
<defs>
<linearGradient id="paint0_linear_3947_3104" x1="15.9731" y1="14.6665" x2="32.4005" y2="28.5189" gradientUnits="userSpaceOnUse">
<stop stop-color="#9AE81A"/>
<stop offset="1" stop-color="#5A880E"/>
</linearGradient>
<clipPath id="clip0_3947_3104">
<rect width="46" height="46" fill="white"/>
</clipPath>
</defs>
</svg>
