<svg width="20" height="20" viewBox="0 0 20 20" fill="none" xmlns="http://www.w3.org/2000/svg">
<path d="M7.61248 17.3114V14.7633C7.61248 14.1128 8.14364 13.5855 8.79886 13.5855H11.194C11.5087 13.5855 11.8104 13.7096 12.0329 13.9305C12.2554 14.1514 12.3804 14.4509 12.3804 14.7633V17.3114C12.3784 17.5818 12.4852 17.8418 12.6771 18.0338C12.8691 18.2257 13.1302 18.3336 13.4026 18.3336H15.0367C15.7999 18.3356 16.5325 18.036 17.0728 17.501C17.6132 16.9659 17.9168 16.2394 17.9168 15.4818V8.2227C17.9168 7.61071 17.6436 7.03019 17.1707 6.63755L11.6118 2.23021C10.6449 1.45746 9.25942 1.48241 8.32132 2.28947L2.88934 6.63755C2.39411 7.01862 2.09812 7.60085 2.0835 8.2227V15.4744C2.0835 17.0535 3.37298 18.3336 4.96364 18.3336H6.5604C7.12618 18.3336 7.58599 17.8805 7.59009 17.3188L7.61248 17.3114Z" fill="#9DB870"/>
</svg>
