<svg width="20" height="20" viewBox="0 0 20 20" fill="none" xmlns="http://www.w3.org/2000/svg">
<path d="M16.9835 12.2636L16.9832 12.2628C16.8663 11.9643 16.6898 11.684 16.4431 11.4383L16.4425 11.4377L16.4234 11.4186C15.9256 10.9246 15.4124 10.4151 14.7943 10.0338C14.1759 9.64855 13.5909 9.72464 13.1533 9.94857C12.7462 10.1569 12.4722 10.4858 12.3606 10.6358L12.3603 10.6363C12.1983 10.8545 12.0571 11.0881 11.9285 11.301L11.9212 11.313L11.9211 11.3132L11.8388 11.449L11.8385 11.4494L11.8321 11.46L11.8311 11.4617C11.4255 12.1335 11.0324 12.7655 10.3824 13.13C9.93083 13.3797 9.56278 13.3812 9.24344 13.294C8.89688 13.1992 8.58837 12.9959 8.2681 12.7782L8.26655 12.7772C8.03611 12.6218 7.77272 12.4468 7.49837 12.3263L7.49558 12.3251C7.07261 12.1425 6.64572 12.1601 6.22352 12.3897C5.8411 12.5975 5.47669 12.9713 5.09382 13.4576C4.7016 13.9539 4.31414 14.4441 3.92187 14.9323L3.92181 14.9323C3.51853 15.4345 3.58692 16.2419 4.18722 16.6126L4.1878 16.6129C4.78321 16.9795 5.49474 17.1669 6.2742 17.1669H13.2973C13.7386 17.1669 14.1892 17.1068 14.6251 16.9642C15.6214 16.6387 16.4067 15.8944 16.8142 14.9234C17.1369 14.1569 17.3296 13.1511 16.9835 12.2636ZM13.611 17.8336H6.38881C5.09793 17.8336 4.05305 17.3836 3.32988 16.6284C2.6049 15.8713 2.16699 14.7692 2.16699 13.403V6.59759C2.16699 5.23143 2.6049 4.12938 3.32988 3.37229C4.05305 2.61709 5.09794 2.16699 6.38881 2.16699H13.6118C14.9027 2.16699 15.9476 2.6171 16.6708 3.3723C17.3958 4.12939 17.8337 5.23144 17.8337 6.59759V13.403C17.8337 14.7692 17.3958 15.8713 16.6707 16.6283C15.9474 17.3835 14.9023 17.8336 13.611 17.8336ZM4.50033 7.08366C4.50033 8.50801 5.65735 9.66699 7.08271 9.66699C8.5071 9.66699 9.66509 8.50814 9.66509 7.08366C9.66509 5.65918 8.5071 4.50032 7.08271 4.50032C5.65735 4.50032 4.50033 5.65931 4.50033 7.08366Z" fill="#9DB870" stroke="#9DB870"/>
</svg>
