<svg width="30" height="30" viewBox="0 0 30 30" fill="none" xmlns="http://www.w3.org/2000/svg">
<path d="M5 7.5C5 7.23479 5.10536 6.98043 5.29289 6.79289C5.48043 6.60536 5.73479 6.5 6 6.5H24C24.2652 6.5 24.5196 6.60537 24.7071 6.79289C24.8947 6.9804 25 7.23476 25 7.5C25 7.76525 24.8947 8.0196 24.7071 8.20711C24.5196 8.39463 24.2652 8.5 24 8.5H6C5.73479 8.5 5.48043 8.39464 5.29289 8.20711C5.10536 8.01957 5 7.76521 5 7.5ZM5 15C5 14.7348 5.10537 14.4804 5.29289 14.2929C5.4804 14.1053 5.73475 14 6 14H24C24.2652 14 24.5197 14.1054 24.7071 14.2929C24.8946 14.4803 25 14.7348 25 15C25 15.2652 24.8946 15.5197 24.7071 15.7071C24.5196 15.8946 24.2652 16 24 16H6C5.73476 16 5.4804 15.8947 5.29289 15.7071C5.10537 15.5196 5 15.2652 5 15ZM14 22.5C14 22.2348 14.1054 21.9803 14.2929 21.7929C14.4803 21.6054 14.7348 21.5 15 21.5H24C24.2652 21.5 24.5196 21.6054 24.7071 21.7929C24.8946 21.9803 25 22.2348 25 22.5C25 22.7652 24.8946 23.0196 24.7071 23.2071C24.5196 23.3946 24.2652 23.5 24 23.5H15C14.7348 23.5 14.4803 23.3946 14.2929 23.2071C14.1054 23.0197 14 22.7652 14 22.5Z" fill="#9DB870" stroke="#9DB870"/>
</svg>
