<svg width="20" height="20" viewBox="0 0 20 20" fill="none" xmlns="http://www.w3.org/2000/svg">
<path d="M13.9118 6.0762C13.9118 8.24747 12.1734 9.98624 10.0002 9.98624C7.8277 9.98624 6.08851 8.24741 6.08851 6.0762C6.08851 3.90511 7.82758 2.16699 10.0002 2.16699C12.1735 2.16699 13.9118 3.90504 13.9118 6.0762ZM10.0002 17.8336C8.20499 17.8336 6.60927 17.6858 5.47823 17.2852C4.91604 17.0861 4.50369 16.8365 4.23546 16.5439C3.97755 16.2624 3.8335 15.9213 3.8335 15.4794C3.8335 15.0383 3.97805 14.699 4.23659 14.4195C4.50578 14.1285 4.91961 13.881 5.48337 13.6841C6.61741 13.288 8.21368 13.1452 10.0002 13.1452C11.7958 13.1452 13.3915 13.2931 14.5224 13.6936C15.0845 13.8927 15.4968 14.1423 15.7649 14.435C16.0228 14.7164 16.1668 15.0575 16.1668 15.4994C16.1668 15.9406 16.0222 16.2799 15.7637 16.5594C15.4945 16.8504 15.0807 17.0979 14.5169 17.2948C13.3829 17.6909 11.7867 17.8336 10.0002 17.8336Z" fill="#9DB870" stroke="#9DB870"/>
</svg>
