<svg width="20" height="20" viewBox="0 0 20 20" fill="none" xmlns="http://www.w3.org/2000/svg">
<path d="M14.1934 8.54516V7.50735C14.1943 7.00807 13.9976 6.52839 13.6426 6.17129M14.1934 8.54516L13.9659 8.5375V8.26906H13.6934M14.1934 8.54516C14.1893 8.66691 14.0901 8.76579 13.9659 8.76906M14.1934 8.54516H13.9659V8.76906M13.6934 8.26906V7.50735V7.50645C13.6941 7.13983 13.5498 6.7873 13.2882 6.52402M13.6934 8.26906V8.54516H13.96L13.9659 8.76906M13.6934 8.26906H6.30759M13.2882 6.52402C13.2883 6.52407 13.2883 6.52412 13.2884 6.52417L13.6426 6.17129M13.2882 6.52402C13.2882 6.52395 13.2881 6.52387 13.288 6.5238L13.6426 6.17129M13.2882 6.52402C13.0312 6.26612 12.6753 6.11888 12.3018 6.11888H7.70111M13.6426 6.17129C13.2901 5.81745 12.8059 5.61888 12.3018 5.61888H7.69842M7.69842 5.61888L7.70346 6.11885C7.70268 6.11886 7.7019 6.11887 7.70111 6.11888M7.69842 5.61888C6.64509 5.6295 5.79842 6.47364 5.80759 7.50735V8.54516M7.69842 5.61888V6.11888H7.70111M7.70111 6.11888C6.91498 6.12804 6.30094 6.75556 6.30757 7.50291L6.30761 7.50735H6.30759V8.26906M6.30759 8.26906H6.03259V8.54051L5.80759 8.54516M6.30759 8.26906V8.54516H6.04002L6.03259 8.76906M5.80759 8.54516H6.03259V8.76906M5.80759 8.54516C5.81009 8.6661 5.90926 8.76497 6.03259 8.76906M6.03259 8.76906H13.9659M7.02276 3.24455L7.02246 3.24455L5.66496 3.24536L5.66453 3.24536C4.2713 3.24739 3.12192 4.36164 3.12192 5.75233V7.30167C3.12192 7.35956 3.07005 7.42436 2.98692 7.42436C2.90466 7.42436 2.85276 7.36041 2.85276 7.30167V5.75233C2.85276 4.24614 4.10581 3.00229 5.66472 3.00082C5.66477 3.00082 5.66482 3.00082 5.66487 3.00082L7.02276 3C7.02279 3 7.02283 3 7.02286 3C7.1055 3.00005 7.15692 3.06358 7.15692 3.12268C7.15692 3.18099 7.10628 3.24455 7.02276 3.24455ZM6.30748 8.53483L6.04017 8.54035L6.04916 8.26933C6.18363 8.27379 6.30433 8.38245 6.30748 8.53483ZM13.9527 8.26923L13.9598 8.53729L13.6937 8.52833C13.6986 8.38357 13.8147 8.27287 13.9527 8.26923ZM17.6472 10.7781H17.1472V11.2781V14.2444C17.1472 15.7552 15.8911 17 14.328 17H13.0005C12.9166 17 12.8655 16.936 12.8655 16.8773C12.8655 16.8199 12.9161 16.7555 13.0005 16.7555H14.328C15.7256 16.7555 16.8788 15.6395 16.8788 14.2444V11.2781V10.7781H16.3788H14.193H13.693V11.2781V12.1042H13.693L13.693 12.1082C13.699 12.8566 13.085 13.4842 12.2988 13.4927H7.70048C6.91529 13.4842 6.30112 12.8567 6.30715 12.1082L6.30717 12.1082V12.1042V11.2781V10.7781H5.80717H3.62134H3.12134V11.2781V14.2477C3.12134 15.6388 4.27196 16.7526 5.66563 16.7546H5.66601L7.02268 16.7555H7.02301C7.10592 16.7555 7.15682 16.819 7.15717 16.8767C7.15668 16.9372 7.10478 16.9999 7.02233 17C7.02228 17 7.02222 17 7.02217 17L5.66514 16.9992C4.10596 16.9977 2.85217 15.7537 2.85217 14.2477V11.2781V10.7781H2.35217H1.46801C1.38315 10.7781 1.33301 10.7133 1.33301 10.657C1.33301 10.5988 1.38437 10.5344 1.46801 10.5344H18.5322C18.6149 10.5344 18.6663 10.5979 18.6663 10.657C18.6663 10.7142 18.6161 10.7781 18.5322 10.7781H17.6472ZM13.0002 3.00025H14.3277C15.8916 3.00025 17.1468 4.24503 17.1468 5.75502V7.30192C17.1468 7.36112 17.0953 7.4246 17.0127 7.4246C16.9304 7.4246 16.8785 7.36061 16.8785 7.30192V5.75502C16.8785 4.36081 15.7254 3.24397 14.3277 3.24397H13.0002C12.9162 3.24397 12.866 3.17992 12.866 3.12293C12.866 3.06384 12.9175 3.00025 13.0002 3.00025Z" fill="#9DB870" stroke="#9DB870"/>
</svg>
