<svg width="24" height="24" viewBox="0 0 24 24" fill="none" xmlns="http://www.w3.org/2000/svg">
<path d="M20.357 19.6441L20.3578 19.6449C20.4047 19.6915 20.442 19.7469 20.4674 19.8079C20.4928 19.8687 20.5058 19.934 20.5058 20C20.5058 20.066 20.4928 20.1313 20.4674 20.1921C20.442 20.2531 20.4047 20.3085 20.3578 20.3551L20.3551 20.3578C20.3085 20.4047 20.2531 20.442 20.1921 20.4674C20.1313 20.4928 20.066 20.5058 20 20.5058C19.934 20.5058 19.8687 20.4928 19.8079 20.4674C19.7469 20.442 19.6915 20.4047 19.6449 20.3578L19.6441 20.357L16.2541 16.957L15.9406 16.6425L15.5913 16.9167C14.282 17.9444 12.6652 18.5021 11.0006 18.5H11C9.51665 18.5 8.0666 18.0601 6.83324 17.2361C5.59986 16.4119 4.63856 15.2406 4.07091 13.8702C3.50325 12.4997 3.35472 10.9917 3.64411 9.53683L3.15372 9.43928L3.64411 9.53682C3.9335 8.08197 4.64781 6.7456 5.6967 5.6967C6.7456 4.64781 8.08197 3.9335 9.53682 3.64411L9.43928 3.15372L9.53683 3.64411C10.9917 3.35472 12.4997 3.50325 13.8702 4.07091C15.2406 4.63856 16.4119 5.59986 17.2361 6.83324C18.0601 8.0666 18.5 9.51665 18.5 11V11.0006C18.5021 12.6652 17.9444 14.282 16.9167 15.5913L16.6425 15.9406L16.957 16.2541L20.357 19.6441ZM5.59545 7.3888C4.88122 8.45772 4.5 9.71443 4.5 11C4.5 12.7239 5.18482 14.3772 6.40381 15.5962C7.62281 16.8152 9.27611 17.5 11 17.5C12.2856 17.5 13.5423 17.1188 14.6112 16.4045C15.6801 15.6903 16.5133 14.6752 17.0052 13.4874C17.4972 12.2997 17.6259 10.9927 17.3751 9.73192C17.1243 8.47106 16.5053 7.31287 15.5962 6.40381C14.6871 5.49477 13.5289 4.8757 12.2681 4.6249C11.0073 4.37409 9.70028 4.50282 8.51256 4.99479C7.32485 5.48675 6.30967 6.31988 5.59545 7.3888Z" fill="#9DB870" stroke="#9DB870"/>
</svg>
