<svg width="20" height="20" viewBox="0 0 20 20" fill="none" xmlns="http://www.w3.org/2000/svg">
<g clip-path="url(#clip0_3947_3136)">
<path d="M15.4681 4.82484L15.3883 4.61216L15.1757 4.53235L13.0919 3.75049L15.1757 2.96861L15.3883 2.88881L15.4681 2.67613L16.25 0.592322L17.0319 2.67613L17.1117 2.88881L17.3243 2.96861L19.4081 3.75049L17.3243 4.53235L17.1117 4.61216L17.0319 4.82484L16.25 6.90866L15.4681 4.82484ZM7.55681 3.07127L7.5568 3.07127L7.5578 3.07343L9.61638 7.53046L9.6936 7.69765L9.86082 7.77481L14.3139 9.82949L14.3159 9.8304C14.3582 9.84968 14.3867 9.89306 14.3867 9.94189C14.3867 9.9907 14.3582 10.0341 14.3159 10.0534L14.3137 10.0544L9.85674 12.113L9.68965 12.1902L9.61248 12.3573L7.55388 16.8143L7.55292 16.8164C7.53361 16.8587 7.49013 16.8872 7.44141 16.8872C7.39267 16.8872 7.3492 16.8587 7.3299 16.8164L7.329 16.8145L5.27431 12.3614L5.19716 12.1941L5.02997 12.1169L0.572939 10.0583L0.570847 10.0574C0.526878 10.0373 0.5 9.99674 0.5 9.9458C0.5 9.8913 0.530126 9.84894 0.570799 9.83039L0.573087 9.82934L5.02622 7.77075L5.19292 7.69368L5.27011 7.52703L7.33261 3.07391L7.33262 3.07391L7.33382 3.07127C7.3531 3.02901 7.39651 3.00048 7.44531 3.00048C7.49412 3.00048 7.53753 3.02901 7.55681 3.07127ZM15.1757 15.4686L15.3883 15.3888L15.4681 15.1761L16.25 13.0923L17.0319 15.1761L17.1117 15.3888L17.3243 15.4686L19.408 16.2505L17.3244 17.0323L17.1117 17.1121L17.0319 17.3248L16.25 19.4087L15.4681 17.3248L15.3883 17.1121L15.1756 17.0323L13.092 16.2505L15.1757 15.4686Z" fill="#9DB870" stroke="#9DB870"/>
</g>
<defs>
<clipPath id="clip0_3947_3136">
<rect width="20" height="20" fill="white"/>
</clipPath>
</defs>
</svg>
